<?xml version="1.0" encoding="UTF-8"?>
<!DOCTYPE svg PUBLIC "-//W3C//DTD SVG 1.1//EN" "http://www.w3.org/Graphics/SVG/1.1/DTD/svg11.dtd">
<!-- Creator: CorelDRAW 2021 (64-Bit) -->
<svg xmlns="http://www.w3.org/2000/svg" xml:space="preserve" width="135.748mm" height="34.7093mm" version="1.1" style="shape-rendering:geometricPrecision; text-rendering:geometricPrecision; image-rendering:optimizeQuality; fill-rule:evenodd; clip-rule:evenodd"
viewBox="0 0 13573.7 3470.66"
 xmlns:xlink="http://www.w3.org/1999/xlink"
 xmlns:xodm="http://www.corel.com/coreldraw/odm/2003">
 <defs>
  <style type="text/css">
   <![CDATA[
    .fil1 {fill:#454DF8}
    .fil2 {fill:#FEFEFE;fill-rule:nonzero}
    .fil0 {fill:#00B7B1;fill-rule:nonzero}
   ]]>
  </style>
 </defs>
 <g id="Capa_x0020_1">
  <metadata id="CorelCorpID_0Corel-Layer"/>
  <g id="_2666342346048">
   <path class="fil0" d="M5211.19 2778.19c106.89,14.33 214.34,21.49 322.33,21.49 346.03,0 617.67,-92.56 814.93,-277.7 197.25,-185.14 295.89,-445.22 295.89,-780.22 0,-341.62 -99.73,-602.79 -299.19,-783.52 -199.46,-180.73 -481.02,-271.09 -844.68,-271.09 -231.42,0 -426.48,25.34 -585.16,76.03 -48.49,15.43 -84.3,36.37 -107.44,62.82 -23.14,26.45 -34.72,61.72 -34.72,105.79l0 1543.9c0,114.6 60.62,195.05 181.84,241.33 63.92,26.45 149.32,46.84 256.21,61.17zm137.2 -461.18l0 -1150.49c46.29,-8.81 110.2,-13.22 191.75,-13.22 158.69,0 283.22,52.35 373.58,157.03 90.36,104.69 135.55,251.81 135.55,441.36 0,191.75 -44.64,336.66 -133.9,434.74 -89.26,98.08 -215.43,147.12 -378.53,147.12 -55.11,0 -117.92,-5.51 -188.45,-16.53z"/>
   <path id="_1" class="fil0" d="M11600.02 1262.39c-163.1,-114.6 -363.66,-171.91 -601.69,-171.91 -266.68,0 -476.06,68.87 -628.14,206.62 -152.07,137.75 -228.11,332.25 -228.11,583.5 0,257.87 74.94,456.23 224.81,595.08 63.92,59.51 140.5,105.24 229.76,137.2 89.26,31.96 184.59,47.94 285.97,47.94 74.94,0 131.14,-4.41 168.61,-13.23 72.73,-11.02 113.51,-16.53 122.32,-16.53 26.45,0 39.68,7.72 39.68,23.15 0,167.5 -130.04,251.25 -390.11,251.25 -103.58,0 -215.99,-22.04 -337.21,-66.12 -37.47,-15.42 -70.52,-23.14 -99.17,-23.14 -44.09,0 -77.14,17.63 -99.18,52.9 -22.04,35.27 -33.06,79.34 -33.06,132.24 0,229.21 214.88,343.82 644.66,343.82 260.08,0 465.6,-59.51 616.57,-178.53 150.98,-119.01 226.46,-285.42 226.46,-499.2l0 -1157.1c0,-55.1 -11.02,-101.38 -33.06,-138.85 -22.05,-37.47 -58.41,-73.83 -109.1,-109.1zm-396.72 783.53c0,105.79 -34.16,166.4 -102.48,181.83 -24.25,8.82 -61.72,13.22 -112.41,13.22 -92.56,0 -163.65,-30.85 -213.23,-92.56 -49.59,-61.72 -74.38,-150.98 -74.38,-267.79 0,-112.4 27.55,-198.9 82.65,-259.52 55.1,-60.61 135.54,-90.91 241.33,-90.91 35.27,0 66.12,3.31 92.57,9.92 57.31,13.22 85.95,70.52 85.95,171.91l0 333.91z"/>
   <path id="_2" class="fil0" d="M13340.63 2573.22c155.38,-150.97 233.07,-360.9 233.07,-629.79 0,-125.63 -20.39,-241.89 -61.17,-348.78 -40.77,-106.89 -99.73,-197.8 -176.87,-272.74 -77.14,-74.94 -169.71,-132.24 -277.71,-171.92 -107.99,-39.67 -224.8,-59.51 -350.43,-59.51 -257.87,0 -466.14,76.03 -624.83,228.11 -77.14,74.93 -136.65,165.85 -178.53,272.75 -41.88,106.89 -62.82,224.25 -62.82,352.08 0,266.69 80.45,474.96 241.34,624.83 154.28,154.28 362.56,231.42 624.83,231.42 266.69,0 477.71,-75.48 633.1,-226.46zm-846.33 -322.33c-51.8,-72.72 -77.69,-175.22 -77.69,-307.46 0,-132.24 25.35,-234.17 76.03,-305.81 50.7,-71.62 122.33,-107.44 214.89,-107.44 92.57,0 164.2,35.82 214.89,107.44 50.69,71.63 76.03,173.57 76.03,305.81 0,132.24 -24.8,234.73 -74.38,307.46 -49.59,72.73 -120.67,109.1 -213.23,109.1 -92.57,0 -164.75,-36.37 -216.54,-109.1z"/>
   <path id="_3" class="fil0" d="M8141.95 1298.76c-152.08,-138.85 -372.48,-208.27 -661.2,-208.27 -123.43,0 -236.38,12.67 -338.86,38.02 -102.49,25.35 -187.9,61.17 -256.22,107.44 -50.69,35.27 -87.05,71.63 -109.09,109.1 -22.05,37.47 -33.07,83.75 -33.07,138.85l0 1586.88c0,99.18 23.15,168.06 69.42,206.62 46.29,38.58 125.63,57.86 238.03,57.86l72.73 0c121.22,4.41 181.84,-57.31 181.84,-185.14l0 -396.72c72.72,28.66 160.89,42.98 264.48,42.98 264.48,0 469.44,-73.83 614.91,-221.49 145.46,-147.67 218.19,-357.05 218.19,-628.14 0,-279.91 -87.05,-495.9 -261.17,-647.98zm-314.08 647.98c0,271.09 -113.5,406.64 -340.51,406.64 -55.1,0 -116.81,-15.43 -185.14,-46.29l0 -727.32c63.92,-33.06 130.04,-49.59 198.35,-49.59 218.2,0 327.29,138.85 327.29,416.56z"/>
   <path id="_4" class="fil0" d="M9837.93 1244.21c-136.65,-102.48 -332.8,-153.73 -588.47,-153.73 -200.56,0 -358.14,23.14 -472.75,69.42 -61.72,26.45 -105.24,56.21 -130.59,89.26 -25.34,33.06 -38.02,78.24 -38.02,135.55 0,52.9 12.12,97.52 36.37,133.89 24.25,36.37 58.41,54.55 102.48,54.55 19.84,0 51.8,-5.51 95.87,-16.53 123.43,-30.86 232.52,-46.29 327.29,-46.29 218.2,0 327.29,59.52 327.29,178.53l0 23.14 -433.09 46.29c-189.54,19.84 -329.49,70.52 -419.86,152.08 -90.36,81.54 -135.55,198.35 -135.55,350.43 0,176.32 66.67,310.22 200.01,401.68 133.34,91.46 322.33,137.2 566.98,137.2 262.28,0 463.94,-42.98 605,-128.93 57.31,-33.07 98.62,-67.77 123.97,-104.14 25.35,-36.37 38.02,-79.89 38.02,-130.59l0 -740.54c0,-198.35 -68.32,-348.78 -204.96,-451.26zm-431.44 1133.95c-42.98,7.72 -86.5,11.58 -130.59,11.58 -149.87,0 -224.8,-49.6 -224.8,-148.78 0,-83.74 70.52,-130.03 211.58,-138.85l238.03 -19.84 0 264.48c-19.84,13.23 -51.25,23.7 -94.22,31.41z"/>
   <path class="fil1" d="M354.8 0l1822.87 0c955.61,0 1730.26,774.66 1730.26,1730.26 -7.56,963.6 -759.65,1740.39 -1730.26,1740.39l-1822.87 0c-195.14,0 -354.8,-159.66 -354.8,-354.8 0,-920.35 0,-1840.71 0,-2761.05 0,-195.14 159.66,-354.8 354.8,-354.8z"/>
   <path class="fil2" d="M2833.56 1374.71l-985.79 985.72c-72.99,73.01 -191.42,73.01 -264.48,0l-508.88 -508.91c-73.02,-73.01 -73.02,-191.45 0,-264.47 73.04,-73.04 191.45,-73.04 264.46,-0.03l376.7 376.7 853.49 -853.5c73.04,-73.03 191.47,-72.98 264.48,0 73,73.03 73,191.42 0.02,264.49z"/>
  </g>
  <g id="_2666342345712">
  </g>
  <g id="_2666342347248">
  </g>
  <g id="_2666342346720">
  </g>
  <g id="_2666342345088">
  </g>
  <g id="_2666342348448">
  </g>
  <g id="_2666342349744">
  </g>
  <g id="_2666342347632">
  </g>
  <g id="_2666342350320">
  </g>
  <g id="_2666342348832">
  </g>
  <g id="_2666342348064">
  </g>
  <g id="_2666342349552">
  </g>
  <g id="_2666342353152">
  </g>
  <g id="_2666342352672">
  </g>
  <g id="_2666342352960">
  </g>
  <g id="_2666342353536">
  </g>
 </g>
</svg>
